<svg id="Layer_1" data-name="Layer 1" xmlns="http://www.w3.org/2000/svg" viewBox="0 0 500 500"><defs><style>.cls-1{fill:#ee7623;}.cls-2{fill:#fff;}</style></defs><rect class="cls-1" width="500" height="500" rx="62.5"/><path class="cls-2" d="M207.91,416.7q1.31,2.28,2.93,5.58c1.08,2.2,2.17,4.51,3.29,6.93s2.23,4.88,3.33,7.38l3,6.93q1.38-3.18,3-6.93t3.3-7.38q1.66-3.63,3.29-6.93T233,416.7h6.79c.37,3,.71,6.27,1,9.69s.62,6.92.88,10.5.51,7.18.73,10.8.42,7.15.58,10.59H235.6q-.24-7.26-.58-14.94t-1-14.88c-.44.92-1,2-1.55,3.3s-1.24,2.67-1.92,4.17-1.37,3.05-2.07,4.65-1.37,3.15-2,4.65-1.27,2.9-1.83,4.2l-1.44,3.33h-5.62q-.6-1.38-1.44-3.36t-1.83-4.23q-1-2.25-2-4.65t-2.07-4.62l-1.92-4.17c-.59-1.3-1.11-2.39-1.55-3.27q-.68,7.2-1,14.88t-.58,14.94H197.7q.24-5.16.57-10.68c.23-3.68.47-7.33.74-11s.56-7.13.88-10.53.67-6.54,1-9.42Z"/><path class="cls-2" d="M261.83,426.12a17.74,17.74,0,0,1,6.05.9,9.71,9.71,0,0,1,3.92,2.52,9.54,9.54,0,0,1,2.09,3.93,19.23,19.23,0,0,1,.63,5.07v19c-1.12.24-2.8.53-5.06.87a51.5,51.5,0,0,1-7.63.51,22.81,22.81,0,0,1-5.15-.54,10.72,10.72,0,0,1-4-1.74,8.21,8.21,0,0,1-2.58-3.12,10.82,10.82,0,0,1-.93-4.74,9.15,9.15,0,0,1,1.05-4.56,8.68,8.68,0,0,1,2.84-3,12.34,12.34,0,0,1,4.17-1.68,23.31,23.31,0,0,1,4.94-.51,22.31,22.31,0,0,1,2.51.15,23.51,23.51,0,0,1,2.82.51v-1.2a9.39,9.39,0,0,0-.3-2.4,5,5,0,0,0-1.05-2,4.91,4.91,0,0,0-2-1.35,8.55,8.55,0,0,0-3.08-.48,27.22,27.22,0,0,0-4.61.36,20.31,20.31,0,0,0-3.42.84l-.89-5.88a28,28,0,0,1,4-1A31.33,31.33,0,0,1,261.83,426.12Zm.6,27.06a27,27,0,0,0,5.09-.36v-8a14.12,14.12,0,0,0-1.74-.36,16.22,16.22,0,0,0-2.52-.18,16.63,16.63,0,0,0-2.42.18,7.57,7.57,0,0,0-2.22.66,3.93,3.93,0,0,0-1.58,1.35,3.77,3.77,0,0,0-.6,2.19,3.86,3.86,0,0,0,1.61,3.57A8.36,8.36,0,0,0,262.43,453.18Zm8.44-39.12-9.76,9.48-3.59-3.24,8.8-10.5Z"/><path class="cls-2" d="M291.23,453.06a9.53,9.53,0,0,0,4.19-.69,2.45,2.45,0,0,0,1.32-2.37,3.07,3.07,0,0,0-1.41-2.58,20.79,20.79,0,0,0-4.64-2.22,35.53,35.53,0,0,1-3.62-1.53,12.39,12.39,0,0,1-2.85-1.89,7.75,7.75,0,0,1-1.89-2.61,9.27,9.27,0,0,1-.68-3.75,8.17,8.17,0,0,1,3.17-6.81q3.18-2.49,8.62-2.49a26.39,26.39,0,0,1,5.27.51,25.7,25.7,0,0,1,3.78,1l-1.32,5.88a17.79,17.79,0,0,0-3.06-1,18.35,18.35,0,0,0-4.31-.45,7.5,7.5,0,0,0-3.59.75,2.46,2.46,0,0,0-1.38,2.31,3.33,3.33,0,0,0,.27,1.38,3,3,0,0,0,.93,1.11,9.53,9.53,0,0,0,1.74,1,26.56,26.56,0,0,0,2.63,1.05,39.15,39.15,0,0,1,4.37,1.89,11.86,11.86,0,0,1,3,2.1,7.28,7.28,0,0,1,1.7,2.67,10.66,10.66,0,0,1,.54,3.6,7.77,7.77,0,0,1-3.32,6.81q-3.33,2.31-9.49,2.31a26,26,0,0,1-6.65-.69,34.13,34.13,0,0,1-3.53-1.11l1.26-6.06a31.91,31.91,0,0,0,3.86,1.26A19.83,19.83,0,0,0,291.23,453.06Z"/><path class="cls-2" d="M385.59,185.59H358.83v0c-.23,0-.46,0-.69,0a7.46,7.46,0,1,0,0,14.92c.23,0,.46,0,.69,0v0h26.76a9.49,9.49,0,0,1,0,19H259.49v88.59a7.46,7.46,0,0,0,14.92,0V234.41H385.59a24.41,24.41,0,1,0,0-48.82Z"/><path class="cls-2" d="M267,326a7.46,7.46,0,0,0-7.46,7.46v.07h0v12.08a9.49,9.49,0,0,1-19,0V219.49H200.43a7.46,7.46,0,1,0,0,14.92h25.16V345.59a24.41,24.41,0,0,0,48.82,0V333.51h0s0,0,0-.07A7.46,7.46,0,0,0,267,326Z"/><path class="cls-2" d="M174.05,219.49l-.46,0v0H114.41a9.49,9.49,0,1,1,0-19h126.1V153a7.46,7.46,0,0,0-14.92,0v32.61H114.41a24.41,24.41,0,1,0,0,48.82h59.18v0c.15,0,.3,0,.46,0a7.46,7.46,0,1,0,0-14.92Z"/><path class="cls-2" d="M233.05,132.71a7.45,7.45,0,0,0,7.44-7.07h0V74.41a9.49,9.49,0,0,1,19,0v126.1H332a7.46,7.46,0,0,0,0-14.92H274.41V74.41a24.41,24.41,0,0,0-48.82,0v51.23h0A7.45,7.45,0,0,0,233.05,132.71Z"/></svg>