<svg id="Layer_1" data-name="Layer 1" xmlns="http://www.w3.org/2000/svg" viewBox="0 0 500 500"><defs><style>.cls-1{fill:#ee7623;}</style></defs><path class="cls-1" d="M423,403.58c-9.54,41.87-28.92,57.29-70.56,57.4-2.9,0-5.85.35-8.69-.06-11.37-1.66-17.84,1.87-24.34,12.9-20.29,34.45-79.6,33.85-101.08.17-17.36-27.23.49-61.11,36.37-69,29-6.39,55.1,5.7,69.43,31.71,1.25,2.27,4.61,4.72,7.05,4.79,11.94.32,24,.64,35.82-.52,17.92-1.76,30.36-13.16,34.58-29.91,1.3-5.17,1.59-9.28-4.32-12.77-9.06-5.34-12.78-14.19-12.77-24.81.1-56.86-.06-113.73.12-170.59.06-17.75,11.48-29.19,29.26-29.38,11.18-.12,22.71-.66,33.5,1.67,30.47,6.56,51.57,32.55,52.16,63.91.63,32.95.77,65.93,0,98.87-.89,36.36-28.36,63.34-65.29,65.62C430.59,403.77,427,403.58,423,403.58ZM403.62,287.91h.05c0,22.8.06,45.59,0,68.39-.1,29.78-2.58,29,30.53,27.93,25.92-.88,45.68-21.35,46-47.12q.67-48.84,0-97.69c-.26-21.68-14.94-40.54-35.48-45.26-8.32-1.92-17.24-1.61-25.89-1.68-13.1-.1-15.17,2.08-15.2,15.11C403.57,234.36,403.62,261.14,403.62,287.91ZM271.35,481.29c6-2.14,15.19-3.84,22.69-8.3,18.06-10.72,17.73-31.88,0-43.28-10.94-7-23-8.25-35.51-5.82-15.44,3-27.16,14.26-27.82,26.59s10.07,24,25.91,28C260.45,479.51,264.4,480,271.35,481.29Z"/><path class="cls-1" d="M115.41,288.71c0,27.53,0,55.06,0,82.59,0,20.85-11.14,32.3-32.21,32.22-11.16,0-22.67-.12-33.4-2.71C20.94,393.84.83,367.53.37,336.88q-.72-48.35,0-96.71c.59-37.89,29.36-66.1,67.23-66.79,6.16-.11,12.32-.16,18.48,0,17.75.51,29.12,11.71,29.27,29.47C115.58,231.48,115.41,260.1,115.41,288.71Zm-19.17.47c0-22.07.22-44.15-.06-66.22-.38-31.11,6.83-32.37-33.37-30a45.89,45.89,0,0,0-43,45.17c-.67,33.27-.54,66.58-.05,99.86.29,20.27,14.07,38.46,33.1,43.73C61,384,70,384.17,78.57,384.36c16.05.35,17.63-1.41,17.65-17Q96.28,328.26,96.24,289.18Z"/><path class="cls-1" d="M438.63,153.59H420.36c-10.17-46.44-35.69-82.74-76.58-107.71A176.68,176.68,0,0,0,240.14,19.81C175.24,23.31,99.86,64.18,79.2,153.59h-18c9.66-74.92,82.5-154,190.41-153C360.25,1.47,429.86,82,438.63,153.59Z"/></svg>