<svg id="Layer_1" data-name="Layer 1" xmlns="http://www.w3.org/2000/svg" viewBox="0 0 485.38 500"><defs><style>.cls-1{fill:#ee7623;}</style></defs><path class="cls-1" d="M254.38,500C111.11,500,0,415.2,0,245.62,0,90.64,122.81,0,248.54,0,383,0,485.38,90.64,485.38,236.84c0,93.57-58.48,134.51-119.88,134.51H307V327.49c-8.77,23.39-35.09,49.71-76,49.71-64.32,0-108.18-46.79-108.18-125.74S169.59,128.66,231,128.66c38,0,61.41,20.46,73.1,43.85v-38H353.8v193h14.62c29.24,0,61.4-14.62,61.4-90.65,0-116.95-70.17-187.13-181.28-187.13-105.27,0-193,76-193,195.91,0,128.65,81.86,204.67,201.75,204.67H400.58V500ZM239.76,333.33c35.09,0,64.33-32.16,64.33-81.87,0-52.63-32.16-79-64.33-79h-2.92c-35.09,0-58.48,20.47-58.48,79,0,55.56,23.39,81.87,58.48,81.87Z"/></svg>