<svg id="Layer_1" data-name="Layer 1" xmlns="http://www.w3.org/2000/svg" viewBox="0 0 500 500"><defs><style>.cls-1{fill:#ee7623;}</style></defs><path class="cls-1" d="M500,465.43,322.75,288.19A179,179,0,0,0,358.5,162C350.26,76.32,280.56,7.66,194.76.62,83.85-8.48-8.47,83.84.62,194.74c7,85.8,75.69,155.51,161.38,163.75a179,179,0,0,0,126.19-35.74L465.44,500ZM193.06,309.79A130.94,130.94,0,0,1,49.55,166.28c6.12-61.15,55.58-110.61,116.73-116.73A130.94,130.94,0,0,1,309.79,193.07C303.68,254.22,254.22,303.68,193.06,309.79Z"/></svg>