<svg id="Layer_1" data-name="Layer 1" xmlns="http://www.w3.org/2000/svg" viewBox="0 0 500 500"><defs><style>.cls-1{fill:#ee7623;}</style></defs><path class="cls-1" d="M327.56,260.43a142.68,142.68,0,0,0,61.95-117.9C389.51,63.81,326.19,0,248.08,0S106.65,63.81,106.65,142.53a142.69,142.69,0,0,0,63.2,118.75C71.09,294.94,0,389.1,0,500H36.72A214.37,214.37,0,0,1,99.19,348a212.12,212.12,0,0,1,301.62,0,214.37,214.37,0,0,1,62.47,152H500C500,388.14,427.66,293.32,327.56,260.43ZM143.37,142.53c0-58.19,47-105.53,104.71-105.53S352.79,84.34,352.79,142.53s-47,105.52-104.71,105.52S143.37,200.72,143.37,142.53Z"/></svg>