<svg id="Layer_1" data-name="Layer 1" xmlns="http://www.w3.org/2000/svg" viewBox="0 0 500 500"><defs><style>.cls-1{fill:#ee7623;fill-rule:evenodd;}</style></defs><path class="cls-1" d="M254.5,0C120,0,11,109,11,243.56a242.43,242.43,0,0,0,35,125.77L1.94,500l134.84-43.17a242.6,242.6,0,0,0,117.72,30.3c134.53,0,243.56-109.06,243.56-243.57S389,0,254.5,0Zm0,446.32A201.64,201.64,0,0,1,143,412.79L65,437.74l25.32-75.3A201.68,201.68,0,0,1,51.75,243.56c0-111.8,91-202.76,202.75-202.76s202.76,91,202.76,202.76S366.31,446.32,254.5,446.32ZM368.7,298.9c-6.11-3.34-36.1-19.53-41.72-21.81s-9.73-3.48-14.11,2.59-16.82,19.61-20.59,23.63-7.43,4.39-13.54,1-25.89-10.66-48.84-32.72c-17.86-17.17-29.57-38-33-44.35s0-9.6,3.2-12.58c2.9-2.68,6.49-7,9.74-10.54s4.38-6.07,6.6-10.14,1.33-7.74-.11-10.91-12.73-34.22-17.44-46.86-10-10.76-13.6-10.9-7.75-.81-11.89-1a22.84,22.84,0,0,0-16.87,7.15c-5.93,6-22.56,20.44-23.7,51s20,61,23,65.24,40.42,70.58,102.68,97.85,62.6,18.95,74,18.34,37.34-13.67,43.07-28,6.19-26.76,4.73-29.41S374.8,302.24,368.7,298.9Z"/></svg>