<svg id="Layer_1" data-name="Layer 1" xmlns="http://www.w3.org/2000/svg" viewBox="0 0 373.7 500"><defs><style>.cls-1{fill:#ee7623;}</style></defs><path class="cls-1" d="M327.77,199.76V141.11C327.77,63.18,265.38,0,188.41,0h-3.13c-77,0-139.35,63.18-139.35,141.11v58.65A52.19,52.19,0,0,0,0,251.57V447.81A52.19,52.19,0,0,0,52.19,500H321.5a52.2,52.2,0,0,0,52.2-52.19V251.57A52.19,52.19,0,0,0,327.77,199.76ZM185.28,41.4h3.13c54.3,0,98.47,44.73,98.47,99.71v58.26H86.81V141.11C86.81,86.13,131,41.4,185.28,41.4ZM332.81,447.81a11.32,11.32,0,0,1-11.31,11.31H52.19a11.33,11.33,0,0,1-11.31-11.31V251.57a11.32,11.32,0,0,1,11.31-11.31H321.5a11.32,11.32,0,0,1,11.31,11.31Z"/><path class="cls-1" d="M234.63,327.94a47.79,47.79,0,1,0-61.41,45.8v35.45a13.63,13.63,0,0,0,27.26,0V373.74A47.81,47.81,0,0,0,234.63,327.94Zm-58.24,46.62.19.05Zm3.46.65h0Zm3.08.34.74.06Zm7.09.06.74-.06Zm3.72-.39h0Zm3.38-.61.19-.05Zm-10.27-26.14a20.53,20.53,0,1,1,20.53-20.53A20.55,20.55,0,0,1,186.85,348.47Z"/></svg>