<svg id="Layer_1" data-name="Layer 1" xmlns="http://www.w3.org/2000/svg" viewBox="0 0 500 500"><defs><style>.cls-1{fill:#ee7623;}</style></defs><path class="cls-1" d="M249.88,61.32a31.47,31.47,0,0,1,20.49,7q8.58,6.94,8.57,22.6t-8.57,22.73a31.13,31.13,0,0,1-20.49,7.08q-12.18,0-20.5-7.08t-8.32-22.73q0-15.64,8.32-22.6T249.88,61.32Zm24.59,103.59V438.68H224.54V164.91Z"/><path class="cls-1" d="M250,500C112.15,500,0,387.85,0,250S112.15,0,250,0,500,112.15,500,250,387.85,500,250,500Zm0-471.7C127.75,28.3,28.3,127.75,28.3,250S127.75,471.7,250,471.7,471.7,372.25,471.7,250,372.25,28.3,250,28.3Z"/></svg>