<svg id="Layer_1" data-name="Layer 1" xmlns="http://www.w3.org/2000/svg" viewBox="0 0 500 500"><defs><style>.cls-1{fill:#ee7623;}</style></defs><path class="cls-1" d="M500,84.15c-.15,11.86-5.28,20.61-13.11,28.41Q393.22,206,299.72,299.64q-67.53,67.49-135.23,134.8a32.2,32.2,0,0,1-10.33,6.91Q83,470,11.59,498.11a12.31,12.31,0,0,1-9-.28c-4.68-2.38-1.8-6.25-.45-9.54Q31,417.6,60,347a32.66,32.66,0,0,1,6.92-10.34q160.9-161.24,322-322.28c17.52-17.52,38.17-17.53,55.68-.09,14.6,14.53,29.1,29.17,43.72,43.68C495.84,65.34,499.94,74.13,500,84.15ZM152.53,407.66l275-275L369,74.05l-275,275ZM449.26,113.38c6.71-7,13.85-14.28,20.9-21.69,4.32-4.55,4.64-9.64.28-14.07Q447.16,54,423.46,30.7c-3.91-3.86-8.7-4.15-12.8-.42C402.74,37.47,395.14,45,387.9,52ZM43.41,457.07,127,423.73,77.4,374.08Z"/></svg>