<svg id="Layer_1" data-name="Layer 1" xmlns="http://www.w3.org/2000/svg" viewBox="0 0 347.57 500"><defs><style>.cls-1{fill:#ee7623;}</style></defs><path class="cls-1" d="M173.79,0A173.75,173.75,0,0,0,6.64,221.32C9.12,230,12,239.55,17.19,249.13,33.74,279.4,69,336,100.36,385.59S159,477.21,159,477.24L173.78,500l14.76-22.76s27.33-42.15,58.67-91.65,66.62-106.2,83.17-136.46c5.21-9.58,8.08-19.16,10.55-27.8A173.76,173.76,0,0,0,173.79,0ZM307.11,211.72c-2.28,8.08-4.6,15.12-7.59,20.55-15.49,28.38-50.83,85.26-82,134.51-15.61,24.66-30.24,47.5-40.95,64.17q-1.44,2.22-2.76,4.29L171,431c-16.08-25-40.94-63.9-64.75-102s-46.63-75.46-58.22-96.69c-3-5.44-5.32-12.48-7.59-20.56a138.61,138.61,0,1,1,266.64,0Z"/><path class="cls-1" d="M173.79,87.42a86.37,86.37,0,0,0,0,172.73h0a86.37,86.37,0,0,0,0-172.73Zm40.07,118.16A51.09,51.09,0,0,1,173.79,225h0a51.29,51.29,0,1,1,40.07-19.4Z"/></svg>