<svg id="Layer_1" data-name="Layer 1" xmlns="http://www.w3.org/2000/svg" viewBox="0 0 500 500"><defs><style>.cls-1{fill:#ee7623;}.cls-2{fill:#fff;}</style></defs><rect class="cls-1" width="500" height="500" rx="68.17"/><path class="cls-2" d="M408.84,221.4H377.47v.08a7.17,7.17,0,0,0-.81-.08,8.74,8.74,0,0,0,0,17.48c.28,0,.54-.06.81-.08v.08h31.37a11.12,11.12,0,0,1,0,22.24H261.06V364.94a8.74,8.74,0,0,0,17.48,0V278.6h130.3a28.6,28.6,0,1,0,0-57.2Z"/><path class="cls-2" d="M269.8,385.92a8.74,8.74,0,0,0-8.74,8.74s0,0,0,.08h0V408.9a11.12,11.12,0,0,1-22.24,0V261.12h-47a8.74,8.74,0,1,0,0,17.48h29.49V408.9a28.6,28.6,0,0,0,57.2,0V394.74h0s0-.05,0-.08A8.74,8.74,0,0,0,269.8,385.92Z"/><path class="cls-2" d="M160.93,261.12c-.18,0-.35.05-.54.06v-.06H91a11.12,11.12,0,0,1,0-22.24H238.82v-55.7a8.74,8.74,0,1,0-17.48,0V221.4H91a28.6,28.6,0,0,0,0,57.2h69.35v-.05c.19,0,.36.05.54.05a8.74,8.74,0,0,0,0-17.48Z"/><path class="cls-2" d="M230.08,159.43a8.72,8.72,0,0,0,8.69-8.29h0v-60a11.12,11.12,0,0,1,22.24,0V238.88h85a8.74,8.74,0,1,0,0-17.48H278.54V91.1a28.6,28.6,0,0,0-57.2,0v60h0A8.72,8.72,0,0,0,230.08,159.43Z"/></svg>